<?xml version="1.0" standalone="no"?><!DOCTYPE svg PUBLIC "-//W3C//DTD SVG 1.1//EN" "http://www.w3.org/Graphics/SVG/1.1/DTD/svg11.dtd"><svg t="1549933032898" class="icon" style="" viewBox="0 0 1024 1024" version="1.1" xmlns="http://www.w3.org/2000/svg" p-id="7739" xmlns:xlink="http://www.w3.org/1999/xlink" width="200" height="200"><defs><style type="text/css">@font-face { font-family: Arial; src: local("Source Han Sans SC"); }
@font-face { font-family: Georgia; src: local("Source Han Sans SC"); }
@font-face { font-family: Helvetica; src: local("Source Han Sans SC"); }
@font-face { font-family: "Helvetica Neue"; src: local("Source Han Sans SC"); }
@font-face { font-family: "Segoe UI"; src: local("Source Han Sans SC"); }
@font-face { font-family: Tahoma; src: local("Source Han Sans SC"); }
@font-face { font-family: Times; src: local("Source Han Sans SC"); }
@font-face { font-family: "Time New Roman"; src: local("Source Han Sans SC"); }
@font-face { font-family: Trebuchet; src: local("Source Han Sans SC"); }
@font-face { font-family: "Trebuchet MS"; src: local("Source Han Sans SC"); }
@font-face { font-family: Verdana; src: local("Source Han Sans SC"); }
@font-face { font-family: Consolas; src: local("Source Code Pro"); }
@font-face { font-family: Courier; src: local("Source Code Pro"); }
@font-face { font-family: "Courier New"; src: local("Source Code Pro"); }
@font-face { font-family: SimSun; src: local("Source Han Sans SC"); }
@font-face { font-family: SimSun-ExtB; src: local("Source Han Sans SC"); }
@font-face { font-family: 宋体; src: local("Source Han Sans SC"); }
@font-face { font-family: NSimSun; src: local("Source Han Sans SC"); }
@font-face { font-family: 新宋体; src: local("Source Han Sans SC"); }
@font-face { font-family: SimHei; src: local("Source Han Sans SC"); }
@font-face { font-family: 黑体; src: local("Source Han Sans SC"); }
@font-face { font-family: "Microsoft YaHei"; src: local("Source Han Sans SC"); }
@font-face { font-family: 微软雅黑; src: local("Source Han Sans SC"); }
@font-face { font-family: "STHeiti SC"; src: local("Source Han Sans SC"); }
@font-face { font-family: "PingFang SC"; src: local("Source Han Sans SC"); }
@font-face { font-family: 苹方-简; src: local("Source Han Sans SC"); }
@font-face { font-family: MingLiU; src: local("Source Han Sans TC"); }
@font-face { font-family: MingLiU-ExtB; src: local("Source Han Sans TC"); }
@font-face { font-family: MingLiU_HKSCS; src: local("Source Han Sans TC"); }
@font-face { font-family: MingLiU_HKSCS-ExtB; src: local("Source Han Sans TC"); }
@font-face { font-family: PMingLiU; src: local("Source Han Sans TC"); }
@font-face { font-family: PMingLiU-ExtB; src: local("Source Han Sans TC"); }
@font-face { font-family: "Microsoft JhengHei"; src: local("Source Han Sans TC"); }
@font-face { font-family: 微軟正黑體; src: local("Source Han Sans TC"); }
@font-face { font-family: "STHeiti TC"; src: local("Source Han Sans TC"); }
@font-face { font-family: "PingFang TC"; src: local("Source Han Sans TC"); }
@font-face { font-family: 蘋方-繁; src: local("Source Han Sans TC"); }
@font-face { font-family: "PingFang HK"; src: local("Source Han Sans TC"); }
@font-face { font-family: 蘋方-港; src: local("Source Han Sans TC"); }
@font-face { font-family: "MS Gothic"; src: local("Source Han Sans"); }
@font-face { font-family: "MS PGothic"; src: local("Source Han Sans"); }
@font-face { font-family: "MS UI Gothic"; src: local("Source Han Sans"); }
@font-face { font-family: "Yu Gothic"; src: local("Source Han Sans"); }
@font-face { font-family: "Yu Gothic UI"; src: local("Source Han Sans"); }
@font-face { font-family: "Malgun Gothic"; src: local("Source Han Sans K"); }
</style></defs><path d="M864 441.6c-6.4-6.4-19.2-19.2-32-19.2-12.8-6.4-25.6-6.4-38.4-6.4-12.8 0-25.6 0-38.4 6.4-12.8 6.4-19.2 12.8-32 19.2C710.4 448 704 460.8 704 473.6c-6.4 12.8-6.4 25.6-6.4 38.4 0 12.8 0 25.6 6.4 38.4C704 563.2 710.4 576 723.2 582.4c6.4 6.4 19.2 19.2 32 19.2 12.8 6.4 25.6 6.4 38.4 6.4 12.8 0 25.6 0 38.4-6.4 12.8-6.4 19.2-12.8 32-19.2 6.4-6.4 12.8-19.2 19.2-32 6.4-12.8 6.4-25.6 6.4-38.4 0-12.8 0-25.6-6.4-38.4C876.8 460.8 870.4 448 864 441.6z" p-id="7740"></path><path d="M512 0C230.4 0 0 230.4 0 512s230.4 512 512 512 512-230.4 512-512S793.6 0 512 0zM140.8 550.4C147.2 563.2 153.6 576 160 582.4 166.4 595.2 179.2 601.6 192 608c12.8 6.4 25.6 6.4 38.4 6.4 32 0 51.2-12.8 70.4-32l32 32C320 627.2 300.8 640 281.6 646.4c-19.2 6.4-38.4 12.8-57.6 12.8-19.2 0-38.4-6.4-57.6-12.8C153.6 640 140.8 627.2 128 614.4 115.2 601.6 102.4 588.8 96 569.6 89.6 550.4 89.6 531.2 89.6 512c0-19.2 6.4-38.4 12.8-57.6C102.4 435.2 115.2 422.4 128 409.6 140.8 396.8 153.6 384 172.8 377.6c19.2-6.4 38.4-12.8 57.6-12.8 19.2 0 38.4 6.4 57.6 12.8S320 396.8 332.8 409.6L294.4 441.6C288 435.2 275.2 422.4 262.4 416 256 416 243.2 409.6 230.4 409.6c-12.8 0-25.6 0-38.4 6.4C179.2 422.4 166.4 428.8 160 441.6 153.6 448 147.2 460.8 140.8 473.6 140.8 486.4 134.4 499.2 134.4 512 134.4 524.8 140.8 537.6 140.8 550.4zM422.4 550.4C428.8 563.2 435.2 576 441.6 582.4 448 595.2 460.8 601.6 467.2 608c12.8 6.4 25.6 6.4 38.4 6.4 32 0 51.2-12.8 70.4-32l32 32C595.2 627.2 582.4 640 563.2 646.4c-19.2 6.4-38.4 12.8-57.6 12.8-19.2 0-38.4-6.4-57.6-12.8C435.2 640 416 627.2 403.2 614.4 390.4 601.6 384 588.8 377.6 569.6 371.2 550.4 364.8 531.2 364.8 512c0-19.2 6.4-38.4 12.8-57.6C384 435.2 390.4 422.4 403.2 409.6 416 396.8 435.2 384 448 377.6c19.2-6.4 38.4-12.8 57.6-12.8 19.2 0 38.4 6.4 57.6 12.8s32 19.2 44.8 32L576 441.6C563.2 435.2 556.8 422.4 544 416 531.2 416 518.4 409.6 505.6 409.6c-12.8 0-25.6 0-38.4 6.4C454.4 422.4 448 428.8 441.6 441.6 428.8 448 422.4 460.8 422.4 473.6 416 486.4 416 499.2 416 512 416 524.8 416 537.6 422.4 550.4zM896 614.4c-12.8 12.8-25.6 19.2-44.8 32-19.2 6.4-38.4 12.8-57.6 12.8-19.2 0-38.4-6.4-57.6-12.8-19.2-6.4-32-19.2-44.8-32-12.8-12.8-25.6-25.6-32-44.8-6.4-19.2-12.8-38.4-12.8-57.6s6.4-38.4 12.8-57.6c6.4-19.2 19.2-32 32-44.8 12.8-12.8 25.6-19.2 44.8-32 19.2-6.4 38.4-12.8 57.6-12.8 19.2 0 38.4 6.4 57.6 12.8C870.4 384 883.2 396.8 896 409.6c12.8 12.8 25.6 25.6 32 44.8 6.4 19.2 12.8 38.4 12.8 57.6s-6.4 38.4-12.8 57.6C915.2 588.8 908.8 601.6 896 614.4z" p-id="7741"></path></svg>