<?xml version="1.0" standalone="no"?><!DOCTYPE svg PUBLIC "-//W3C//DTD SVG 1.1//EN" "http://www.w3.org/Graphics/SVG/1.1/DTD/svg11.dtd"><svg t="1550373750319" class="icon" style="" viewBox="0 0 1024 1024" version="1.1" xmlns="http://www.w3.org/2000/svg" p-id="14009" xmlns:xlink="http://www.w3.org/1999/xlink" width="200" height="200"><defs><style type="text/css"></style></defs><path d="M979.84 371.904v163.904l39.36 45.248-75.648 65.728-68.992-65.728 41.472-46.464V399.04c-223.424 91.392-284.032 119.744-333.504 141.952-49.6 22.144-85.248 22.08-134.464 3.712C398.912 526.336 176.064 441.6 59.904 386.496c-77.504-36.8-82.56-60.16 1.344-91.328 109.376-41.28 279.168-107.264 375.04-143.296 56.768-22.784 86.784-35.264 138.88-9.28 93.056 38.08 294.464 117.184 400.128 160.512 92.032 39.744 30.144 52.864 4.544 68.8zM593.344 609.024c54.08-22.144 126.912-58.752 206.4-92.48v271.04S696.96 896 516.288 896c-194.56 0-299.648-108.416-299.648-108.416V534.592c61.312 24.768 130.176 46.08 213.504 74.432 51.328 18.048 116.544 24.32 163.2 0z" p-id="14010" fill="#000000"></path></svg>