<?xml version="1.0" standalone="no"?><!DOCTYPE svg PUBLIC "-//W3C//DTD SVG 1.1//EN" "http://www.w3.org/Graphics/SVG/1.1/DTD/svg11.dtd"><svg t="1550373928238" class="icon" style="" viewBox="0 0 1025 1024" version="1.1" xmlns="http://www.w3.org/2000/svg" p-id="14373" xmlns:xlink="http://www.w3.org/1999/xlink" width="200.1953125" height="200"><defs><style type="text/css"></style></defs><path d="M1022.019275 397.340444c-4.778667-14.336-17.578667-24.746667-32.967111-26.936889l-304.355556-42.808889-136.135111-267.178667c-6.855111-13.397333-21.048889-21.987556-36.608-21.987556-15.530667 0-29.752889 8.590222-36.579556 21.987556l-136.078222 267.178667-304.355556 42.808889c-15.36 2.190222-28.16 12.600889-32.938667 26.936889-4.807111 14.279111-0.796444 30.008889 10.325333 40.476444l220.216889 207.900444L180.604164 939.320889c-2.645333 14.848 3.669333 29.838222 16.241778 38.684444 12.544 8.817778 29.212444 10.040889 42.979556 3.015111l272.184889-138.581333 272.270222 138.581333c13.710222 7.025778 30.350222 5.831111 42.951111-3.015111 12.544-8.817778 18.858667-23.836444 16.241778-38.684444l-51.996444-293.575111 220.216889-207.900444C1022.81572 427.349333 1026.797942 411.619556 1022.019275 397.340444z" p-id="14374" fill="#000000"></path></svg>