<?xml version="1.0" standalone="no"?><!DOCTYPE svg PUBLIC "-//W3C//DTD SVG 1.1//EN" "http://www.w3.org/Graphics/SVG/1.1/DTD/svg11.dtd"><svg t="1550374527289" class="icon" style="" viewBox="0 0 1024 1024" version="1.1" xmlns="http://www.w3.org/2000/svg" p-id="21901" xmlns:xlink="http://www.w3.org/1999/xlink" width="200" height="200"><defs><style type="text/css"></style></defs><path d="M949.238 932.579 725.907 932.579c44.138-22.45 84.282-51.622 119.667-87.006 43.315-43.315 77.326-93.764 101.088-149.941 24.605-58.176 37.082-119.958 37.082-183.632s-12.477-125.456-37.082-183.632C922.9 272.19 888.89 221.742 845.574 178.427 802.258 135.11 751.81 101.1 695.633 77.338c-58.177-24.605-119.959-37.083-183.632-37.083S386.545 52.732 328.369 77.338c-56.178 23.761-106.626 57.773-149.942 101.088-43.315 43.316-77.326 93.764-101.088 149.941C52.733 386.544 40.256 448.326 40.256 512s12.476 125.456 37.083 183.632c23.761 56.178 57.773 106.626 101.088 149.941 43.316 43.316 93.764 77.327 149.942 101.088 58.176 24.606 119.958 37.083 183.632 37.083 2.42 0 4.837-0.024 7.252-0.061 0.553 0.036 1.109 0.061 1.671 0.061L949.24 983.744c14.13 0 25.583-11.454 25.583-25.583C974.823 944.033 963.368 932.579 949.238 932.579zM286.204 622.354c-59.351 0-107.638-48.287-107.638-107.638s48.286-107.638 107.638-107.638c59.351 0 107.637 48.287 107.637 107.638S345.554 622.354 286.204 622.354zM511.999 845.435c-59.351 0-107.638-48.287-107.638-107.639 0-59.351 48.286-107.638 107.638-107.638s107.639 48.287 107.639 107.638C619.638 797.147 571.352 845.435 511.999 845.435zM512 394.811c-59.352 0-107.638-48.287-107.638-107.638 0-59.351 48.286-107.637 107.638-107.637s107.639 48.287 107.639 107.637C619.639 346.524 571.352 394.811 512 394.811zM629.188 510.254c0-59.352 48.287-107.637 107.639-107.637 59.353 0 107.639 48.287 107.639 107.637s-48.286 107.638-107.639 107.638C677.475 617.892 629.188 569.606 629.188 510.254z" p-id="21902" fill="#000000"></path><path d="M512 230.701c-31.14 0-56.473 25.333-56.473 56.472S480.86 343.646 512 343.646s56.474-25.333 56.474-56.472S543.14 230.701 512 230.701z" p-id="21903" fill="#000000"></path><path d="M512 681.323c-31.139 0-56.473 25.333-56.473 56.473 0 31.139 25.333 56.473 56.473 56.473s56.474-25.334 56.474-56.473C568.474 706.656 543.139 681.323 512 681.323z" p-id="21904" fill="#000000"></path><path d="M793.3 510.254c0-31.139-25.334-56.472-56.474-56.472-31.139 0-56.473 25.333-56.473 56.472s25.334 56.473 56.473 56.473C767.966 566.727 793.3 541.393 793.3 510.254z" p-id="21905" fill="#000000"></path><path d="M286.204 458.244c-31.139 0-56.472 25.332-56.472 56.472 0 31.139 25.333 56.473 56.472 56.473s56.472-25.334 56.472-56.473S317.343 458.244 286.204 458.244z" p-id="21906" fill="#000000"></path></svg>