<?xml version="1.0" standalone="no"?><!DOCTYPE svg PUBLIC "-//W3C//DTD SVG 1.1//EN" "http://www.w3.org/Graphics/SVG/1.1/DTD/svg11.dtd"><svg t="1549956186764" class="icon" style="" viewBox="0 0 1024 1024" version="1.1" xmlns="http://www.w3.org/2000/svg" p-id="6803" xmlns:xlink="http://www.w3.org/1999/xlink" width="200" height="200"><defs><style type="text/css">@font-face { font-family: Arial; src: local("Source Han Sans SC"); }
@font-face { font-family: Georgia; src: local("Source Han Sans SC"); }
@font-face { font-family: Helvetica; src: local("Source Han Sans SC"); }
@font-face { font-family: "Helvetica Neue"; src: local("Source Han Sans SC"); }
@font-face { font-family: "Segoe UI"; src: local("Source Han Sans SC"); }
@font-face { font-family: Tahoma; src: local("Source Han Sans SC"); }
@font-face { font-family: Times; src: local("Source Han Sans SC"); }
@font-face { font-family: "Time New Roman"; src: local("Source Han Sans SC"); }
@font-face { font-family: Trebuchet; src: local("Source Han Sans SC"); }
@font-face { font-family: "Trebuchet MS"; src: local("Source Han Sans SC"); }
@font-face { font-family: Verdana; src: local("Source Han Sans SC"); }
@font-face { font-family: Consolas; src: local("Source Code Pro"); }
@font-face { font-family: Courier; src: local("Source Code Pro"); }
@font-face { font-family: "Courier New"; src: local("Source Code Pro"); }
@font-face { font-family: SimSun; src: local("Source Han Sans SC"); }
@font-face { font-family: SimSun-ExtB; src: local("Source Han Sans SC"); }
@font-face { font-family: 宋体; src: local("Source Han Sans SC"); }
@font-face { font-family: NSimSun; src: local("Source Han Sans SC"); }
@font-face { font-family: 新宋体; src: local("Source Han Sans SC"); }
@font-face { font-family: SimHei; src: local("Source Han Sans SC"); }
@font-face { font-family: 黑体; src: local("Source Han Sans SC"); }
@font-face { font-family: "Microsoft YaHei"; src: local("Source Han Sans SC"); }
@font-face { font-family: 微软雅黑; src: local("Source Han Sans SC"); }
@font-face { font-family: "STHeiti SC"; src: local("Source Han Sans SC"); }
@font-face { font-family: "PingFang SC"; src: local("Source Han Sans SC"); }
@font-face { font-family: 苹方-简; src: local("Source Han Sans SC"); }
@font-face { font-family: MingLiU; src: local("Source Han Sans TC"); }
@font-face { font-family: MingLiU-ExtB; src: local("Source Han Sans TC"); }
@font-face { font-family: MingLiU_HKSCS; src: local("Source Han Sans TC"); }
@font-face { font-family: MingLiU_HKSCS-ExtB; src: local("Source Han Sans TC"); }
@font-face { font-family: PMingLiU; src: local("Source Han Sans TC"); }
@font-face { font-family: PMingLiU-ExtB; src: local("Source Han Sans TC"); }
@font-face { font-family: "Microsoft JhengHei"; src: local("Source Han Sans TC"); }
@font-face { font-family: 微軟正黑體; src: local("Source Han Sans TC"); }
@font-face { font-family: "STHeiti TC"; src: local("Source Han Sans TC"); }
@font-face { font-family: "PingFang TC"; src: local("Source Han Sans TC"); }
@font-face { font-family: 蘋方-繁; src: local("Source Han Sans TC"); }
@font-face { font-family: "PingFang HK"; src: local("Source Han Sans TC"); }
@font-face { font-family: 蘋方-港; src: local("Source Han Sans TC"); }
@font-face { font-family: "MS Gothic"; src: local("Source Han Sans"); }
@font-face { font-family: "MS PGothic"; src: local("Source Han Sans"); }
@font-face { font-family: "MS UI Gothic"; src: local("Source Han Sans"); }
@font-face { font-family: "Yu Gothic"; src: local("Source Han Sans"); }
@font-face { font-family: "Yu Gothic UI"; src: local("Source Han Sans"); }
@font-face { font-family: "Malgun Gothic"; src: local("Source Han Sans K"); }
</style></defs><path d="M796.444444 515.555556l130.673778-57.998223A28.444444 28.444444 0 0 1 967.111111 483.555556v317.44a28.444444 28.444444 0 0 1-39.992889 26.026666L796.444444 768.995556V853.333333a56.888889 56.888889 0 0 1-56.888888 56.888889H113.777778a56.888889 56.888889 0 0 1-56.888889-56.888889V398.222222a56.888889 56.888889 0 0 1 56.888889-56.888889h625.777778a56.888889 56.888889 0 0 1 56.888888 56.888889v117.333334zM497.777778 312.888889a99.555556 99.555556 0 1 1 0-199.111111 99.555556 99.555556 0 0 1 0 199.111111z m-199.111111 0a71.111111 71.111111 0 1 1 0-142.222222 71.111111 71.111111 0 0 1 0 142.222222zM341.333333 739.555556a28.444444 28.444444 0 0 0 42.552889 24.689777l199.111111-113.777777a28.444444 28.444444 0 0 0 0-49.379556l-199.111111-113.777778A28.444444 28.444444 0 0 0 341.333333 512v227.555556z m56.888889-178.545778L511.544889 625.777778 398.222222 690.545778v-129.536z" p-id="6804" fill="#000000"></path></svg>