<?xml version="1.0" standalone="no"?><!DOCTYPE svg PUBLIC "-//W3C//DTD SVG 1.1//EN" "http://www.w3.org/Graphics/SVG/1.1/DTD/svg11.dtd"><svg t="1550374808577" class="icon" style="" viewBox="0 0 1024 1024" version="1.1" xmlns="http://www.w3.org/2000/svg" p-id="23216" xmlns:xlink="http://www.w3.org/1999/xlink" width="200" height="200"><defs><style type="text/css"></style></defs><path d="M64 64v896h896V64H64z m123.1 67.2c18.6 0 33.6 15 33.6 33.6s-15 33.6-33.6 33.6-33.6-15-33.6-33.6 15-33.6 33.6-33.6z m0 761.6c-18.6 0-33.6-15-33.6-33.6s15-33.6 33.6-33.6 33.6 15 33.6 33.6-15.1 33.6-33.6 33.6z m425.8-1.3H411.1v-67.2h201.8v67.2z m223.9 1.3c-18.6 0-33.6-15-33.6-33.6s15-33.6 33.6-33.6 33.6 15 33.6 33.6-15 33.6-33.6 33.6zM512 691.2c-148.5 0-268.8-120.3-268.8-268.8S363.5 153.6 512 153.6s268.8 120.3 268.8 268.8S660.5 691.2 512 691.2z m324.8-492.8c-18.6 0-33.6-15-33.6-33.6s15-33.6 33.6-33.6 33.6 15 33.6 33.6-15 33.6-33.6 33.6z" p-id="23217" fill="#000000"></path><path d="M512 422.4m-44.8 0a44.8 44.8 0 1 0 89.6 0 44.8 44.8 0 1 0-89.6 0Z" p-id="23218" fill="#000000"></path></svg>