<?xml version="1.0" standalone="no"?><!DOCTYPE svg PUBLIC "-//W3C//DTD SVG 1.1//EN" "http://www.w3.org/Graphics/SVG/1.1/DTD/svg11.dtd"><svg t="1550372512787" class="icon" style="" viewBox="0 0 1024 1024" version="1.1" xmlns="http://www.w3.org/2000/svg" p-id="5359" xmlns:xlink="http://www.w3.org/1999/xlink" width="200" height="200"><defs><style type="text/css"></style></defs><path d="M983.8 41.8h-39.4v78.3h-118V41.8H196.8v78.3H78.7V41.8H39.4C17.7 41.8 0 59.4 0 81v861.6c0 21.6 17.7 39.2 39.4 39.2h39.4v-39.2h118.1v39.2h629.7v-39.2h118.1v39.2h39.4c21.7 0 39.4-17.6 39.4-39.2V81c-0.3-21.6-18-39.2-39.7-39.2z m-787 783.3H78.7V707.6h118.1v117.5z m0-235H78.7V472.6h118.1v117.5z m0-235H78.7V237.6h118.1v117.5z m495.4 182.4L436.2 686c-4.2 2.1-8.7 3.1-13.3 3.1-5.4 0-10.7-1.4-15.5-4.3-8.7-5.2-13.9-14.5-13.9-24.5v-297c0-10 5.3-19.3 13.9-24.5 8.7-5.2 19.6-5.7 28.7-1.2L692 486.1c10 4.9 16.3 14.8 16.3 25.7 0.1 10.9-6.2 20.8-16.1 25.7z m252.3 287.6H826.4V707.6h118.1v117.5z m0-235H826.4V472.6h118.1v117.5z m0-235H826.4V237.6h118.1v117.5z m0 0" fill="#000000" p-id="5360"></path></svg>