<?xml version="1.0" standalone="no"?><!DOCTYPE svg PUBLIC "-//W3C//DTD SVG 1.1//EN" "http://www.w3.org/Graphics/SVG/1.1/DTD/svg11.dtd"><svg t="1550374454347" class="icon" style="" viewBox="0 0 1024 1024" version="1.1" xmlns="http://www.w3.org/2000/svg" p-id="21053" xmlns:xlink="http://www.w3.org/1999/xlink" width="200" height="200"><defs><style type="text/css"></style></defs><path d="M425.122327 496.169453 67.088978 496.169453c-1.688455 0-3.069919-1.381463-3.069919-3.069919l0-360.746134c0-1.688455 1.381463-3.069919 3.069919-3.069919l358.033349 0c1.688455 0 3.069919 1.381463 3.069919 3.069919l0 360.746134C428.192246 494.78799 426.810782 496.169453 425.122327 496.169453z" p-id="21054" fill="#000000"></path><path d="M957.24155 322.605465 708.753129 559.154973c-1.77646 1.691525-4.604878 1.610684-6.2831-0.179079L467.669352 308.637336c-1.679245-1.789763-1.599428-4.638647 0.178055-6.330172L716.334805 65.756633c1.77646-1.691525 4.604878-1.610684 6.2831 0.179079L957.419606 316.275293C959.097828 318.065056 959.01801 320.91394 957.24155 322.605465z" p-id="21055" fill="#000000"></path><path d="M425.122327 959.460078 67.088978 959.460078c-1.688455 0-3.069919-1.381463-3.069919-3.069919l0-360.746134c0-1.688455 1.381463-3.069919 3.069919-3.069919l358.033349 0c1.688455 0 3.069919 1.381463 3.069919 3.069919l0 360.746134C428.192246 958.078615 426.810782 959.460078 425.122327 959.460078z" p-id="21056" fill="#000000"></path><path d="M891.560642 959.460078 533.527292 959.460078c-1.688455 0-3.069919-1.381463-3.069919-3.069919l0-360.746134c0-1.688455 1.381463-3.069919 3.069919-3.069919l358.033349 0c1.688455 0 3.069919 1.381463 3.069919 3.069919l0 360.746134C894.63056 958.078615 893.249097 959.460078 891.560642 959.460078z" p-id="21057" fill="#000000"></path></svg>