<?xml version="1.0" standalone="no"?><!DOCTYPE svg PUBLIC "-//W3C//DTD SVG 1.1//EN" "http://www.w3.org/Graphics/SVG/1.1/DTD/svg11.dtd"><svg t="1550372009001" class="icon" style="" viewBox="0 0 1024 1024" version="1.1" xmlns="http://www.w3.org/2000/svg" p-id="2903" xmlns:xlink="http://www.w3.org/1999/xlink" width="200" height="200"><defs><style type="text/css"></style></defs><path d="M877.727943 127.99998l0 639.9999q0 28.575996-19.423997 50.847992t-49.151992 34.559995-59.135991 18.271997-55.135991 6.015999-55.135991-6.015999-59.135991-18.271997-49.151992-34.559995-19.423997-50.847992 19.423997-50.847992 49.151992-34.559995 59.135991-18.271997 55.135991-6.015999q59.999991 0 109.727983 22.271997l0-306.847952-438.847931 135.423979 0 405.151937q0 28.575996-19.423997 50.847992t-49.151992 34.559995-59.135991 18.271997-55.135991 6.015999-55.135991-6.015999-59.135991-18.271997-49.151992-34.559995-19.423997-50.847992 19.423997-50.847992 49.151992-34.559995 59.135991-18.271997 55.135991-6.015999q59.999991 0 109.727983 22.271997l0-552.575914q0-17.727997 10.847998-32.287995t27.999996-20.287997l475.423926-146.271977q6.847999-2.272 15.999998-2.272 22.847996 0 38.847994 15.999998t15.999998 38.847994z" p-id="2904" fill="#000000"></path></svg>